:version 1.10
:name ASF
:units
  mass 1
  length 1
  angle deg
:documentation
  ASF file generated by Kaydara
:root
  axis xyz
  order  tx ty tz rx ry rz
  position 0 0 0
  orientation 0 0 0
:bonedata
  begin
    id 1
    name LeftUpLegDummy
    direction 1 -2.30186e-007 -8.31532e-007
    length 2.93387
    axis 0 0 0 xyz
  end
  begin
    id 2
    name LeftUpLeg
    direction -1.82929e-007 -1 -1.48925e-009
    length 17.3336
    axis -3.48766 0.00143442 -0.000521554 xyz
    dof rx ry rz
  end
  begin
    id 3
    name LeftLeg
    direction -1.82929e-007 -1 -5.23717e-011
    length 14.9995
    axis 3.68178 -0.00654042 -0.000282425 xyz
    dof rx ry rz
  end
  begin
    id 4
    name LeftFoot
    direction 8.31532e-007 -4.54534e-011 1
    length 6.74421
    axis 1.87234e-006 4.66016e-005 -5.96866e-006 xyz
    dof rx ry rz
  end
  begin
    id 5
    name LeftToes
    direction 0.00818058 -0.00485161 0.999955
    length 3.85048
    axis 1.06247e-005 4.65869e-005 -5.96999e-006 xyz
    dof rx ry rz
  end
  begin
    id 6
    name SpineDummy
    direction -5.8607e-008 0.943407 -0.331637
    length 5.93572
    axis 0 0 0 xyz
  end
  begin
    id 7
    name Spine
    direction -1.04988e-007 0.999988 0.00495137
    length 10.1015
    axis -0.001389 0.000121417 6.61666e-006 xyz
    dof rx ry rz
  end
  begin
    id 8
    name Spine1
    direction 0 0 0
    length 0
    axis -0.001389 0.00012144 6.56766e-006 xyz
    dof rx ry rz
  end
  begin
    id 9
    name RightShoulderDummy
    direction -0.98348 0.17941 -0.0240696
    length 3.59882
    axis -0.001389 0.00012144 6.56766e-006 xyz
  end
  begin
    id 10
    name RightShoulder
    direction -0.978693 0.204882 0.0135597
    length 2.70001
    axis 0.215806 0.000203631 -0.00679732 xyz
    dof rx ry rz
  end
  begin
    id 11
    name RightArm
    direction -1 3.85509e-006 8.31394e-007
    length 10.2459
    axis -23.2009 -0.134239 -0.964098 xyz
    dof rx ry rz
  end
  begin
    id 12
    name RightForeArm
    direction -1 3.85569e-006 8.3129e-007
    length 8.16799
    axis -9.92322 0.0658061 0.17887 xyz
    dof rx ry rz
  end
  begin
    id 13
    name RightHand
    direction -0.992843 -0.0414604 0.112003
    length 5.28593
    axis -0.00960638 0.00330669 -0.185225 xyz
    dof rx ry rz
  end
  begin
    id 14
    name LeftShoulder1Dummy
    direction 0.983523 0.179172 -0.0240748
    length 3.59866
    axis -0.001389 0.00012144 6.56766e-006 xyz
  end
  begin
    id 15
    name LeftShoulder1
    direction 0.978627 0.205195 0.0135605
    length 2.70019
    axis -0.001389 0.00012144 6.57583e-006 xyz
    dof rx ry rz
  end
  begin
    id 16
    name LeftArm
    direction 1 3.51895e-006 -8.60188e-007
    length 10.2459
    axis -23.1894 0.134785 0.967513 xyz
    dof rx ry rz
  end
  begin
    id 17
    name LeftForeArm
    direction 1 3.51921e-006 -7.32029e-007
    length 8.16799
    axis -9.91835 -0.0656957 -0.177789 xyz
    dof rx ry rz
  end
  begin
    id 18
    name LeftHand
    direction 0.992938 -0.0411636 0.11126
    length 5.32135
    axis -0.00960237 -0.00340661 0.185177 xyz
    dof rx ry rz
  end
  begin
    id 19
    name HEadDummy
    direction 1.01974e-006 0.999861 -0.016675
    length 2.99946
    axis -0.001389 0.00012144 6.56766e-006 xyz
  end
  begin
    id 20
    name HEad
    direction -0.0222689 0.980941 0.193023
    length 5.12695
    axis -0.001389 0.00012144 6.56766e-006 xyz
    dof rx ry rz
  end
  begin
    id 21
    name RightUpLegDummy
    direction -1 2.30186e-007 8.31532e-007
    length 2.93387
    axis 0 0 0 xyz
  end
  begin
    id 22
    name RightUpLeg
    direction -1.82966e-007 -1 1.56832e-007
    length 17.3336
    axis -3.4909 -0.000906625 0.00028951 xyz
    dof rx ry rz
  end
  begin
    id 23
    name RightLeg
    direction -1.82786e-007 -1 -1.80317e-007
    length 14.9995
    axis 3.68513 0.0193739 -0.131021 xyz
    dof rx ry rz
  end
  begin
    id 24
    name RightFoot
    direction 8.31721e-007 -4.63324e-011 1
    length 6.74421
    axis 4.81691e-005 -0.120479 -0.188785 xyz
    dof rx ry rz
  end
  begin
    id 25
    name RightToes
    direction 0.00124746 -0.014064 0.9999
    length 3.85082
    axis 0.000481921 0.542163 -0.142575 xyz
    dof rx ry rz
  end
:hierarchy
  begin
    root LeftUpLegDummy SpineDummy RightUpLegDummy
    LeftUpLegDummy LeftUpLeg
    LeftUpLeg LeftLeg
    LeftLeg LeftFoot
    LeftFoot LeftToes
    SpineDummy Spine
    Spine Spine1
    Spine1 RightShoulderDummy LeftShoulder1Dummy HEadDummy
    RightShoulderDummy RightShoulder
    RightShoulder RightArm
    RightArm RightForeArm
    RightForeArm RightHand
    LeftShoulder1Dummy LeftShoulder1
    LeftShoulder1 LeftArm
    LeftArm LeftForeArm
    LeftForeArm LeftHand
    HEadDummy HEad
    RightUpLegDummy RightUpLeg
    RightUpLeg RightLeg
    RightLeg RightFoot
    RightFoot RightToes
  end

:SAMPLES-PER-SECOND 30
:FULLY-SPECIFIED
:DEGREES
148
root  37.1254 34.4717 49.4689 175.139 81.871 165.955
LeftUpLeg  -10.2937 -8.72575 0.520991
LeftLeg  12.4151 -23.4156 -3.49474
LeftFoot  -2.51993 0.0259071 1.17786
LeftToes  -15.2406 2.48695e-006 -1.03773e-007
Spine  4.49175 3.40832 -3.54535
Spine1  8.89023 6.91677 -6.24175
RightShoulder  0.0107268 5.81056 4.35526
RightArm  -30.4406 -16.5384 82.434
RightForeArm  22.7883 29.8919 5.81456
RightHand  0.220309 -3.44429 -6.93434
LeftShoulder1  0.0147646 3.39297 -12.5388
LeftArm  -34.774 6.5758 -46.1461
LeftForeArm  39.0808 -6.84254 -1.2054
LeftHand  0.370037 4.50274 9.00751
HEad  8.71742 48.2954 -2.60237
RightUpLeg  -22.0373 -0.422578 -13.5934
RightLeg  12.084 30.2344 4.27144
RightFoot  7.86787 -0.302892 4.7795
RightToes  -40.5016 -0.222502 -0.317938
149
root  37.5899 34.4463 49.8143 176.305 78.349 166.817
LeftUpLeg  -10.2679 -9.86772 0.856694
LeftLeg  12.524 -25.5845 -3.8446
LeftFoot  -2.5218 0.0285613 1.29756
LeftToes  -17.5781 2.48695e-006 -1.03773e-007
Spine  4.42417 3.58879 -3.54404
Spine1  8.75661 7.30434 -6.24715
RightShoulder  0.0116432 5.77649 4.38069
RightArm  -29.5843 -16.1035 81.213
RightForeArm  22.5872 29.0252 5.61158
RightHand  0.266288 -4.37203 -6.5876
LeftShoulder1  0.0119971 3.40427 -12.8243
LeftArm  -35.072 6.86614 -43.7453
LeftForeArm  39.1856 -7.30005 -1.28674
LeftHand  0.337897 3.94978 9.3891
HEad  8.15876 48.4772 -2.8237
RightUpLeg  -19.8666 1.91936 -14.4093
RightLeg  10.0345 23.5079 2.55381
RightFoot  7.18574 -0.183253 3.29511
RightToes  -46.4136 -0.271636 -0.348412
150
root  37.9644 34.5723 50.1364 -177.996 74.9522 172.464
LeftUpLeg  -10.2206 -11.8129 2.44135
LeftLeg  12.2117 -26.5659 -3.83877
LeftFoot  -2.02556 0.0190464 1.07735
LeftToes  -18.3429 2.48695e-006 -1.03773e-007
Spine  4.40258 3.71145 -2.77192
Spine1  8.72963 7.5357 -4.84393
RightShoulder  0.0124867 5.90555 4.53113
RightArm  -29.5172 -15.0687 78.3685
RightForeArm  24.0119 26.9952 5.14936
RightHand  0.212888 -4.72595 -4.77893
LeftShoulder1  0.0106376 3.67255 -12.8764
LeftArm  -38.2172 6.52777 -43.8279
LeftForeArm  41.1776 -6.92499 -1.21767
LeftHand  0.346017 3.33093 11.4642
HEad  8.57691 47.55 -3.06641
RightUpLeg  -18.0773 -1.94811 -12.5285
RightLeg  9.26827 24.1511 2.30336
RightFoot  6.90777 -0.171671 3.221
RightToes  -44.971 -0.259361 -0.341446
151
root  38.3287 34.707 50.4743 -174.718 71.5246 175.699
LeftUpLeg  -10.0551 -13.4248 3.95448
LeftLeg  11.3205 -27.6794 -3.56611
LeftFoot  -1.20872 0.0070991 0.672979
LeftToes  -18.7993 2.48695e-006 -1.03773e-007
Spine  4.19085 3.69953 -1.87809
Spine1  8.33337 7.48313 -3.21785
RightShoulder  0.0133954 6.14224 4.05918
RightArm  -30.5544 -14.5025 75.592
RightForeArm  26.6693 25.2809 4.77176
RightHand  0.137222 -5.2347 -2.62782
LeftShoulder1  0.00942017 3.74651 -12.0881
LeftArm  -42.1534 7.53398 -46.0761
LeftForeArm  42.2635 -6.90719 -1.21316
LeftHand  0.365778 2.83751 14.2833
HEad  8.85162 45.6615 -3.08787
RightUpLeg  -16.6211 -5.44583 -10.8201
RightLeg  8.87377 24.3643 2.15857
RightFoot  6.70292 -0.162282 3.11618
RightToes  -42.3667 -0.23766 -0.328097
152
root  38.6818 34.8001 50.8486 -172.816 68.1203 177.414
LeftUpLeg  -9.96628 -14.7066 5.38713
LeftLeg  9.95953 -28.5381 -3.00947
LeftFoot  -0.293818 0.000459118 0.179049
LeftToes  -20.0265 2.48695e-006 -1.03773e-007
Spine  3.97821 3.51101 -1.1583
Spine1  7.92685 7.08388 -1.92085
RightShoulder  0.0153209 6.61538 3.80707
RightArm  -31.8222 -13.934 72.8287
RightForeArm  28.1267 23.8347 4.46173
RightHand  0.131989 -5.74876 -2.25573
LeftShoulder1  0.00833998 3.60138 -10.7843
LeftArm  -44.6773 9.36169 -49.3013
LeftForeArm  40.0533 -7.69642 -1.35648
LeftHand  0.371964 2.59392 15.9062
HEad  8.28293 43.5527 -2.96616
RightUpLeg  -15.391 -7.22894 -9.48268
RightLeg  8.29341 22.7904 1.80007
RightFoot  6.49372 -0.138991 2.77693
RightToes  -39.0582 -0.211004 -0.309741
153
root  38.9826 34.8527 51.2078 -171.621 64.9554 178.541
LeftUpLeg  -10.1988 -14.363 6.36594
LeftLeg  9.68228 -28.5383 -2.87583
LeftFoot  0.172164 0.000133622 -0.0889493
LeftToes  -21.4531 2.48695e-006 -1.03773e-007
Spine  3.92758 3.24539 -0.571787
Spine1  7.8301 6.53849 -0.879592
RightShoulder  0.0197562 6.99443 4.005
RightArm  -33.6856 -12.8661 70.0024
RightForeArm  28.2597 22.1275 4.10545
RightHand  0.204556 -5.9164 -3.58288
LeftShoulder1  0.00739225 3.21435 -9.55659
LeftArm  -44.869 11.2043 -52.7844
LeftForeArm  35.405 -8.69256 -1.53956
LeftHand  0.410087 2.88215 15.7851
HEad  7.36492 41.5335 -2.6755
RightUpLeg  -14.3912 -7.35439 -8.47282
RightLeg  7.97299 19.852 1.46778
RightFoot  6.13157 -0.10381 2.23757
RightToes  -37.9071 -0.201984 -0.302997
154
root  39.2506 34.8812 51.5079 -170.63 62.0221 179.54
LeftUpLeg  -10.2965 -13.7517 6.99308
LeftLeg  9.42707 -27.219 -2.63583
LeftFoot  0.400509 0.000742942 -0.212576
LeftToes  -21.9421 2.48695e-006 -1.03773e-007
Spine  3.91423 2.94879 0.00974888
Spine1  7.80642 5.92825 0.169239
RightShoulder  0.0270952 7.36643 4.3486
RightArm  -36.9376 -11.7328 67.2337
RightForeArm  27.587 20.2474 3.7237
RightHand  0.320631 -5.88147 -5.85885
LeftShoulder1  0.00657217 2.68171 -8.78463
LeftArm  -43.5518 12.7304 -56.3436
LeftForeArm  31.602 -9.28767 -1.64953
LeftHand  0.476233 3.69334 14.2933
HEad  6.95693 39.7698 -2.11216
RightUpLeg  -13.4928 -7.82246 -7.47577
RightLeg  7.70875 17.6115 1.22679
RightFoot  5.70979 -0.0772513 1.81946
RightToes  -36.9294 -0.19443 -0.297128
155
root  39.5002 34.8923 51.7722 -169.73 59.2195 -179.617
LeftUpLeg  -10.3502 -13.8168 7.69691
LeftLeg  8.73069 -25.7706 -2.20065
LeftFoot  0.701329 0.00216787 -0.354218
LeftToes  -22.9996 2.48695e-006 -1.03773e-007
Spine  3.87961 2.6591 0.591759
Spine1  7.73768 5.34027 1.23063
RightShoulder  0.0398081 7.57914 4.67475
RightArm  -40.6019 -10.7495 64.6709
RightForeArm  25.4575 18.8866 3.45396
RightHand  0.460861 -6.2104 -8.10129
LeftShoulder1  0.00587493 2.2301 -8.4334
LeftArm  -41.1685 13.672 -60.1029
LeftForeArm  30.208 -9.56281 -1.70001
LeftHand  0.49743 4.46898 12.3074
HEad  7.30117 38.1492 -1.27291
RightUpLeg  -12.8482 -8.05488 -6.45664
RightLeg  7.61771 15.128 1.03378
RightFoot  5.23028 -0.052197 1.41521
RightToes  -35.949 -0.186958 -0.291114
156
root  39.74 34.8861 52.0356 -169.107 56.5622 -178.858
LeftUpLeg  -10.6072 -14.4793 8.83322
LeftLeg  8.44484 -26.287 -2.11421
LeftFoot  0.959672 0.00419318 -0.500692
LeftToes  -24.7103 2.48695e-006 -1.03773e-007
Spine  3.89334 2.38276 1.1785
Spine1  7.75871 4.78983 2.28637
RightShoulder  0.0571849 7.55617 5.12526
RightArm  -43.6627 -9.92898 62.3479
RightForeArm  22.7769 18.6306 3.40414
RightHand  0.593189 -6.56994 -9.9273
LeftShoulder1  0.00529572 2.25972 -8.32115
LeftArm  -37.7061 14.0879 -64.2514
LeftForeArm  30.5841 -10.1153 -1.79971
LeftHand  0.448301 4.76479 10.3588
HEad  8.34038 36.6839 -0.175827
RightUpLeg  -12.3184 -8.55177 -5.35841
RightLeg  7.90566 12.9985 0.955726
RightFoot  4.56039 -0.0302065 1.0521
RightToes  -34.7743 -0.178141 -0.283741
157
root  39.9554 34.8787 52.3035 -168.816 54.4025 -178.296
LeftUpLeg  -11.1902 -14.9996 10.0832
LeftLeg  9.00897 -27.9422 -2.50278
LeftFoot  1.10639 0.00601315 -0.622784
LeftToes  -27.2438 2.48695e-006 -1.03773e-007
Spine  3.96275 2.23585 1.64733
Spine1  7.89772 4.49438 3.14008
RightShoulder  0.0677934 7.43496 5.58308
RightArm  -45.8996 -9.33325 60.5332
RightForeArm  20.6594 19.3071 3.5377
RightHand  0.666719 -6.84102 -10.7396
LeftShoulder1  0.00482975 2.34957 -8.19966
LeftArm  -33.0702 14.6082 -68.632
LeftForeArm  30.8638 -11.7116 -2.09034
LeftHand  0.364309 4.6574 8.55778
HEad  9.23037 35.3148 0.863571
RightUpLeg  -12.028 -9.66037 -4.31993
RightLeg  8.61278 12.0543 1.03585
RightFoot  3.7592 -0.0156788 0.801491
RightToes  -33.6016 -0.169492 -0.276202
158
root  40.1508 34.8801 52.5418 -168.754 53.1526 -177.988
LeftUpLeg  -11.6183 -14.8748 10.9103
LeftLeg  9.77845 -29.1168 -2.97616
LeftFoot  1.17327 0.00713911 -0.697245
LeftToes  -28.913 2.48695e-006 -1.03773e-007
Spine  4.06077 2.33794 1.92967
Spine1  8.09567 4.70325 3.65523
RightShoulder  0.0768422 7.46175 6.02484
RightArm  -46.6136 -9.08252 59.1156
RightForeArm  19.2111 20.2163 3.71878
RightHand  0.696571 -6.90569 -11.1256
LeftShoulder1  0.00447219 2.26384 -8.13776
LeftArm  -26.9496 15.5428 -72.6816
LeftForeArm  29.5105 -14.3405 -2.57811
LeftHand  0.290567 4.63152 6.79569
HEad  9.79744 34.1916 1.82835
RightUpLeg  -11.7668 -10.1468 -3.57413
RightLeg  8.99914 11.4206 1.05917
RightFoot  3.24578 -0.00785957 0.654812
RightToes  -32.9013 -0.164402 -0.271616
159
root  40.3245 34.885 52.7673 -168.845 52.6376 -177.92
LeftUpLeg  -11.6778 -14.6487 11.3235
LeftLeg  10.0892 -28.9758 -3.11497
LeftFoot  1.31176 0.00822168 -0.774856
LeftToes  -29.8677 2.48695e-006 -1.03773e-007
Spine  4.10888 2.55839 2.04015
Spine1  8.19225 5.15608 3.85088
RightShoulder  0.0833966 7.45658 6.31493
RightArm  -45.9284 -8.8615 58.4063
RightForeArm  18.9822 20.8716 3.85071
RightHand  0.699347 -6.70602 -11.5128
LeftShoulder1  0.00421826 2.34108 -8.24121
LeftArm  -19.9207 16.7556 -75.8579
LeftForeArm  27.8437 -17.9556 -3.26909
LeftHand  0.198371 4.71738 4.4367
HEad  10.1855 33.4992 2.53729
RightUpLeg  -11.4783 -9.90177 -3.05331
RightLeg  8.89837 10.6939 0.973679
RightFoot  2.97711 -0.00477779 0.561275
RightToes  -32.2616 -0.1598 -0.266805
160
root  40.4921 34.8889 52.9922 -168.837 52.2871 -177.886
LeftUpLeg  -11.7058 -14.2674 11.6167
LeftLeg  10.1487 -28.1696 -3.06409
LeftFoot  1.54797 0.0118585 -0.877791
LeftToes  -30.8834 2.48695e-006 -1.03773e-007
Spine  4.0663 2.68795 2.09535
Spine1  8.11006 5.42086 3.95877
RightShoulder  0.0833874 7.32444 6.25125
RightArm  -44.5243 -8.48079 58.6164
RightForeArm  19.5362 21.1279 3.9027
RightHand  0.683538 -6.46118 -11.6836
LeftShoulder1  0.00406313 2.67343 -8.55179
LeftArm  -13.5312 18.0263 -78.1159
LeftForeArm  27.9907 -22.2662 -4.13216
LeftHand  0.0748559 4.20464 1.66625
HEad  9.92809 33.2213 2.50467
RightUpLeg  -11.3654 -10.2183 -2.48045
RightLeg  8.79631 10.6078 0.946987
RightFoot  2.71868 -0.00323483 0.509127
RightToes  -31.498 -0.154371 -0.262241
161
root  40.6779 34.9042 53.2122 -168.79 51.8324 -177.89
LeftUpLeg  -11.8369 -13.0799 11.749
LeftLeg  10.3862 -27.3135 -3.08858
LeftFoot  1.84989 0.0183015 -1.00281
LeftToes  -31.7599 2.48695e-006 -1.03773e-007
Spine  3.95479 2.70255 2.11952
Spine1  7.89058 5.45129 4.01492
RightShoulder  0.0805846 7.05988 6.04262
RightArm  -42.8666 -8.10165 59.5663
RightForeArm  19.9434 21.1341 3.90398
RightHand  0.642725 -6.36854 -11.1327
LeftShoulder1  0.00400201 2.84215 -8.69674
LeftArm  -9.54875 19.2488 -79.4542
LeftForeArm  30.1192 -25.842 -4.88986
LeftHand  0.386132 8.54292 4.79253
HEad  9.18434 33.1179 1.92244
RightUpLeg  -11.159 -10.5512 -1.92594
RightLeg  8.42042 10.5045 0.868841
RightFoot  2.64668 -0.0033536 0.491304
RightToes  -30.9698 -0.150656 -0.258649
